HIERARCHY
ROOT Hips
{
	OFFSET 0.000000 88.474243 0.000000
	CHANNELS 6 Xposition Yposition Zposition Zrotation Yrotation Xrotation 
	JOINT Hips_Spine
	{
		OFFSET 0.000000 0.000000 0.000000
		CHANNELS 3 Zrotation Yrotation Xrotation
		JOINT Spine
		{
			OFFSET 0.005100 8.711998 -0.691000
			CHANNELS 3 Zrotation Yrotation Xrotation
			JOINT Spine1
			{
				OFFSET -0.009200 8.660301 -1.275000
				CHANNELS 3 Zrotation Yrotation Xrotation
				JOINT Spine2
				{
					OFFSET 0.006300 9.852501 -1.857000
					CHANNELS 3 Zrotation Yrotation Xrotation
					JOINT Spine2_Neck
					{
						OFFSET 0.000000 0.000000 0.000000
						CHANNELS 3 Zrotation Yrotation Xrotation
						JOINT Neck
						{
							OFFSET 0.016300 11.420799 -0.263300
							CHANNELS 3 Zrotation Yrotation Xrotation
							End Site #name: Head
							{
								OFFSET -0.019200 9.262405 2.362500
							}
						}
					}
					JOINT Spine2_LeftShoulder
					{
						OFFSET 0.000000 0.000000 0.000000
						CHANNELS 3 Zrotation Yrotation Xrotation
						JOINT LeftShoulder
						{
							OFFSET 5.616900 6.732201 -0.345700
							CHANNELS 3 Zrotation Yrotation Xrotation
							JOINT LeftArm
							{
								OFFSET 10.664888 -0.183372 -2.440700
								CHANNELS 3 Zrotation Yrotation Xrotation
								JOINT LeftForeArm
								{
									OFFSET 27.459126 0.000000 0.000000
									CHANNELS 3 Zrotation Yrotation Xrotation
									End Site #name: LeftHand
									{
										OFFSET 21.306858 0.000000 0.000000
									}
								}
							}
						}
					}
					JOINT Spine2_RightShoulder
					{
						OFFSET 0.000000 0.000000 0.000000
						CHANNELS 3 Zrotation Yrotation Xrotation
						JOINT RightShoulder
						{
							OFFSET -5.580300 6.737503 -0.344400
							CHANNELS 3 Zrotation Yrotation Xrotation
							JOINT RightArm
							{
								OFFSET -10.679335 -0.188484 -2.383900
								CHANNELS 3 Zrotation Yrotation Xrotation
								JOINT RightForeArm
								{
									OFFSET -27.503529 0.000000 0.000000
									CHANNELS 3 Zrotation Yrotation Xrotation
									End Site #name: RightHand
									{
										OFFSET -21.306808 0.000000 0.000000
									}
								}
							}
						}
					}
				}
			}
		}
	}
	JOINT Hips_LeftUpLeg
	{
		OFFSET 0.000000 0.000000 0.000000
		CHANNELS 3 Zrotation Yrotation Xrotation
		JOINT LeftUpLeg
		{
			OFFSET 6.857700 -6.739601 0.312100
			CHANNELS 3 Zrotation Yrotation Xrotation
			JOINT LeftLeg
			{
				OFFSET -0.367590 -34.731552 -4.572400
				CHANNELS 3 Zrotation Yrotation Xrotation
				End Site #name: LeftFoot
				{
					OFFSET 0.367590 -34.656704 -6.067400
				}
			}
		}
	}
	JOINT Hips_RightUpLeg
	{
		OFFSET 0.000000 0.000000 0.000000
		CHANNELS 3 Zrotation Yrotation Xrotation
		JOINT RightUpLeg
		{
			OFFSET -6.876100 -6.733299 0.301000
			CHANNELS 3 Zrotation Yrotation Xrotation
			JOINT RightLeg
			{
				OFFSET 0.347353 -34.795158 -4.515900
				CHANNELS 3 Zrotation Yrotation Xrotation
				End Site #name: RightFoot
				{
					OFFSET -0.347353 -34.589367 -6.070300
				}
			}
		}
	}
}
MOTION
Frames: 17
Frame Time: 0.041667
-51.620785 87.240303 17.366055 10.058518 64.663610 -20.888662 0.000000 -0.000000 0.000000 -0.489634 8.420963 -29.302187 -0.744802 -31.276777 -9.525596 0.000000 0.000000 0.000000 -7.833908 -14.369936 -5.134552 -76.755945 10.805625 -19.431126 -12.553104 -3.786053 -2.386161 -92.808808 -16.081661 3.243250 -165.135180 51.472873 -127.705633 179.242685 -26.947410 176.221218 -16.668672 -14.069791 9.778149 66.385678 -6.603812 -14.207593 46.547865 43.110769 -131.131207 -179.702617 18.889478 179.320568 -0.000000 -0.000000 0.000000 45.292455 -15.082527 29.471023 66.332889 20.242551 124.888758 -0.000000 0.000000 0.000000 90.532515 15.926697 4.805959 -23.626851 23.095925 -59.612866 
-52.814121 89.965576 18.007954 9.792898 64.996432 -21.111087 0.000000 -0.000000 0.000000 -0.485419 8.296601 -28.863619 -0.582424 -31.864930 -10.147536 0.000000 0.000000 0.000000 -7.954151 -14.652196 -5.340090 -76.956305 10.906170 -19.625687 -12.949665 -3.741805 -2.551723 -92.721416 -16.239611 3.347685 -165.086782 51.616969 -127.568530 179.275573 -26.774384 176.226277 -17.009658 -14.160529 10.177860 67.486801 -7.399541 -15.250229 47.097277 43.035852 -130.648585 -179.659326 19.503906 179.227585 -0.000000 -0.000000 0.000000 45.897672 -15.383357 29.381848 67.508630 19.936704 125.641855 -0.000000 0.000000 0.000000 90.223959 16.366448 4.344809 -23.449217 23.129865 -59.333022 
-54.061531 92.711906 18.679020 9.531839 65.511453 -21.298108 0.000000 -0.000000 0.000000 -0.452564 8.157307 -28.266985 -0.417892 -32.475629 -10.766304 0.000000 0.000000 0.000000 -8.054970 -14.971054 -5.587803 -77.104628 10.867577 -19.803734 -13.372017 -3.671685 -2.693869 -92.585938 -16.370067 3.404074 -165.087040 51.726667 -127.463859 179.297140 -26.584097 176.236730 -17.362038 -14.274836 10.605672 68.663046 -8.161107 -16.183013 47.599259 43.040929 -130.203310 -179.585693 20.027856 179.127152 -0.000000 -0.000000 0.000000 46.582624 -15.757824 28.944244 68.632159 19.549151 126.423559 -0.000000 0.000000 0.000000 89.982431 16.842670 3.717372 -23.225386 23.138201 -58.923033 
-55.364666 95.472969 19.371239 9.247809 66.249025 -21.455191 0.000000 -0.000000 0.000000 -0.400742 7.947128 -27.538395 -0.265839 -33.121122 -11.355303 0.000000 0.000000 0.000000 -8.141565 -15.341708 -5.889782 -77.192539 10.672041 -19.990589 -13.821521 -3.588679 -2.801293 -92.399934 -16.490339 3.412584 -165.194287 51.858493 -127.419659 179.305333 -26.350301 176.251254 -17.724556 -14.422599 11.057287 69.944092 -8.735225 -17.019086 48.033634 43.165866 -129.833053 -179.489573 20.473467 179.016863 -0.000000 -0.000000 0.000000 47.353739 -16.168065 28.229103 69.584327 19.178651 127.070113 -0.000000 0.000000 0.000000 89.811164 17.418520 2.899065 -22.943475 23.159154 -58.379616 
-56.723644 98.239433 20.076492 8.964329 67.126745 -21.569137 0.000000 -0.000000 0.000000 -0.403917 7.664899 -26.738513 -0.128438 -33.775734 -11.872160 0.000000 0.000000 0.000000 -8.218396 -15.750108 -6.248398 -77.206232 10.344866 -20.199497 -14.292240 -3.489390 -2.868251 -92.142230 -16.601415 3.383313 -165.340069 52.015739 -127.358080 179.305724 -26.134635 176.267069 -18.081226 -14.595345 11.496536 71.337480 -9.103918 -17.707978 48.408018 43.394837 -129.543666 -179.381556 20.798618 178.898726 -0.000000 -0.000000 0.000000 48.158518 -16.626872 27.398692 70.282439 18.806399 127.580968 -0.000000 -0.000000 0.000000 89.757485 18.257670 1.802671 -22.544973 23.202914 -57.640252 
-58.125324 101.012100 20.786070 8.676984 68.186879 -21.616537 0.000000 -0.000000 0.000000 -0.415505 7.391682 -25.931392 -0.049385 -34.406107 -12.407272 0.000000 0.000000 0.000000 -8.282383 -16.179856 -6.596457 -77.125466 9.906008 -20.434858 -14.766840 -3.378244 -2.912585 -91.783768 -16.682404 3.280386 -165.570563 52.181834 -127.320620 179.296122 -25.909147 176.287999 -18.437049 -14.783205 11.932564 72.809596 -9.281037 -18.294723 48.702117 43.778863 -129.323736 -179.270624 20.951467 178.776374 -0.000000 -0.000000 0.000000 48.933618 -17.131860 26.394206 70.694424 18.521134 127.952006 -0.000000 -0.000000 0.000000 89.623627 19.328977 0.440264 -22.028677 23.297235 -56.832347 
-59.556671 103.795204 21.490374 8.388276 69.404652 -21.599318 0.000000 -0.000000 0.000000 -0.485299 7.082078 -25.182580 0.012947 -35.011980 -12.901142 0.000000 0.000000 0.000000 -8.298073 -16.635484 -6.969303 -76.994737 9.377292 -20.728949 -15.230033 -3.249466 -2.907875 -91.310311 -16.716488 3.091711 -165.820236 52.347157 -127.272292 179.281516 -25.785174 176.312057 -18.754189 -14.948448 12.308090 74.312979 -9.301297 -18.764654 48.901324 44.306065 -129.207079 -179.145095 21.026125 178.657711 -0.000000 -0.000000 0.000000 49.657406 -17.800560 25.230399 70.795208 18.465826 128.090040 -0.000000 -0.000000 0.000000 89.477304 20.433244 -0.715926 -21.468894 23.358677 -56.285191 
-61.006664 106.582558 22.180067 8.125490 70.728969 -21.519544 0.000000 -0.000000 0.000000 -0.541332 6.781012 -24.415406 0.047882 -35.565640 -13.232185 0.000000 0.000000 0.000000 -8.279650 -17.061609 -7.300351 -76.772163 8.786865 -21.151497 -15.635813 -3.116005 -2.875742 -90.769944 -16.693721 2.800702 -166.095846 52.485346 -127.240367 179.256141 -25.607945 176.351009 -19.045631 -15.085797 12.647909 75.759538 -9.153855 -19.063792 49.042215 44.890711 -129.171591 -179.014954 21.022294 178.534737 -0.000000 -0.000000 0.000000 50.357487 -18.486676 23.946988 70.508478 18.489077 128.049288 -0.000000 -0.000000 0.000000 89.384109 21.608698 -1.554578 -20.937617 23.398212 -56.080093 
-62.464073 109.373016 22.842766 7.918813 72.149724 -21.310366 0.000000 -0.000000 0.000000 -0.611854 6.544408 -23.887992 0.072426 -36.038533 -13.403710 0.000000 0.000000 0.000000 -8.232053 -17.435758 -7.590864 -76.415272 8.118428 -21.632881 -15.982539 -2.973744 -2.763300 -90.095166 -16.645001 2.446200 -166.330881 52.592232 -127.164443 179.204971 -25.553731 176.392614 -19.254612 -15.178498 12.922350 77.086264 -8.884345 -19.237253 49.089141 45.494550 -129.258643 -178.879016 21.083940 178.398897 -0.000000 -0.000000 0.000000 50.888584 -19.127831 22.567862 69.947041 18.628218 127.775238 -0.000000 -0.000000 0.000000 89.440301 22.823480 -1.990587 -20.386677 23.450090 -56.210812 
-63.924412 112.172852 23.485249 7.803223 73.584776 -20.903027 0.000000 -0.000000 0.000000 -0.440116 6.450486 -23.630701 0.080874 -36.391910 -13.396438 0.000000 0.000000 0.000000 -8.149428 -17.781813 -7.866379 -75.915794 7.365462 -22.156822 -16.247645 -2.841379 -2.551357 -89.358518 -16.559588 2.066663 -166.551548 52.677091 -127.026021 179.149111 -25.605334 176.428270 -19.384774 -15.221925 13.112787 78.288317 -8.478408 -19.242532 49.111543 46.038302 -129.393951 -178.768808 21.470628 178.246729 -0.000000 -0.000000 0.000000 51.216623 -19.716011 21.324660 69.178793 18.891361 127.240585 -0.000000 -0.000000 0.000000 89.474750 24.210576 -2.397392 -19.946944 23.543607 -56.390736 
-65.379715 114.992599 24.115824 7.704641 75.124194 -20.382371 0.000000 -0.000000 0.000000 -0.145880 6.432185 -23.597474 0.097021 -36.644914 -13.291486 0.000000 0.000000 0.000000 -8.035069 -18.084092 -8.122999 -75.316921 6.544549 -22.697068 -16.400920 -2.714637 -2.231639 -88.513201 -16.410558 1.637876 -166.747906 52.773456 -126.846401 179.100425 -25.752656 176.461863 -19.431812 -15.203264 13.261457 79.435953 -7.988063 -19.111738 49.103915 46.557519 -129.588830 -178.677475 21.939248 178.082979 -0.000000 -0.000000 0.000000 51.577215 -20.228014 20.174036 68.184204 19.236770 126.456945 -0.000000 -0.000000 0.000000 89.580314 25.877389 -2.966854 -19.712970 23.673571 -56.465240 
-66.822189 117.847206 24.736862 7.687215 76.799566 -19.721938 0.000000 -0.000000 0.000000 0.182555 6.458618 -23.655491 0.119040 -36.746820 -13.080328 0.000000 0.000000 0.000000 -7.929896 -18.286219 -8.382688 -74.813233 5.764245 -23.195015 -16.475716 -2.594290 -1.815944 -87.551286 -16.223277 1.177286 -166.903664 52.908364 -126.592191 179.057668 -26.059210 176.495328 -19.401282 -15.100489 13.350986 80.559657 -7.428578 -18.917196 49.135657 47.013049 -129.751942 -178.605299 22.479480 177.910036 -0.000000 -0.000000 0.000000 52.241192 -20.339938 19.032715 66.971153 19.631926 125.455453 -0.000000 -0.000000 0.000000 89.798002 28.015301 -3.856013 -19.557790 23.938807 -56.200318 
-68.245689 120.739677 25.353716 7.743253 78.552061 -18.956462 0.000000 -0.000000 0.000000 0.367045 6.491512 -23.698534 0.175179 -36.795518 -12.921928 0.000000 0.000000 0.000000 -7.862775 -18.479171 -8.608358 -74.475672 4.954180 -23.536683 -16.517321 -2.460438 -1.341047 -86.480314 -15.985125 0.709977 -167.033694 53.056419 -126.261904 179.016136 -26.538333 176.528467 -19.329390 -14.933519 13.418717 81.652462 -6.884291 -18.705004 49.206871 47.507331 -129.815164 -178.544332 23.052696 177.725402 -0.000000 -0.000000 0.000000 53.021243 -20.346120 17.847068 65.545697 20.052647 124.283311 -0.000000 -0.000000 0.000000 90.260393 30.551545 -4.942824 -19.402433 24.332558 -55.705940 
-69.639458 123.654388 25.966593 7.716021 80.383940 -18.235033 0.000000 -0.000000 0.000000 0.492561 6.523924 -23.696717 0.277251 -36.921942 -12.906254 0.000000 0.000000 0.000000 -7.876541 -18.671539 -8.725995 -74.352406 4.355253 -24.064433 -16.569528 -2.314507 -0.791460 -85.222454 -15.634746 0.137591 -167.092884 53.274718 -125.860453 178.985543 -27.248079 176.560225 -19.293199 -14.701200 13.590676 82.547994 -6.393457 -18.492283 49.455223 48.008582 -129.621080 -178.505025 23.627938 177.538529 0.000000 -0.000000 0.000000 53.875299 -20.228973 16.434504 63.953908 20.461209 123.072318 -0.000000 -0.000000 0.000000 91.117742 33.174594 -5.986969 -19.072732 24.883984 -54.909793 
-71.009377 126.592827 26.584419 7.525750 82.324150 -17.635111 0.000000 -0.000000 0.000000 0.552785 6.600215 -23.810002 0.401590 -37.084325 -12.928731 0.000000 0.000000 0.000000 -7.936103 -18.879742 -8.769698 -74.145058 3.909756 -24.735856 -16.645947 -2.159420 -0.193027 -83.480532 -15.017122 -0.871872 -167.157073 53.548578 -125.434039 178.969646 -28.175125 176.597203 -19.300909 -14.422869 13.887903 82.999572 -5.914109 -18.190207 49.823810 48.549599 -129.226400 -178.476484 24.224217 177.375640 0.000000 -0.000000 0.000000 54.785400 -19.741338 15.278787 62.208663 20.950568 121.663067 -0.000000 -0.000000 0.000000 92.280472 35.644017 -6.701286 -18.576721 25.594722 -53.936223 
-72.364441 129.526382 27.201426 7.256047 84.110982 -17.133751 0.000000 -0.000000 0.000000 0.716513 6.754598 -24.009813 0.534786 -37.348030 -12.920374 0.000000 0.000000 0.000000 -8.044032 -19.086733 -8.695889 -73.752599 3.581427 -25.416780 -16.716768 -1.988907 0.561225 -81.817077 -14.479876 -1.865151 -167.259196 53.877375 -125.012942 178.959196 -29.261209 176.634535 -19.360189 -14.147032 14.327700 83.145865 -5.474717 -17.836509 50.304876 49.143400 -128.622825 -178.485898 24.841323 177.194096 0.000000 -0.000000 0.000000 56.033932 -18.756766 13.931652 60.634354 21.211239 120.173509 -0.000000 -0.000000 0.000000 92.849892 38.373728 -8.838878 -18.082436 26.527602 -53.039035 
-73.715378 132.423782 27.803223 6.099850 85.850096 -17.553122 0.000000 -0.000000 0.000000 0.854469 6.953841 -24.209440 0.684223 -37.718257 -12.863278 0.000000 0.000000 0.000000 -8.219409 -19.310226 -8.371643 -73.076612 3.487409 -26.115061 -16.736235 -1.811179 1.537820 -80.403317 -13.932073 -2.619026 -167.405297 54.217518 -124.581493 178.950060 -30.463612 176.675648 -19.451746 -13.924645 14.828316 83.003236 -5.223007 -17.814630 50.811411 49.751704 -127.802703 -178.573859 26.258218 176.996755 0.000000 -0.000000 0.000000 57.578439 -17.033689 12.126127 59.171467 21.488047 118.608888 -0.000000 -0.000000 0.000000 93.267745 41.037253 -11.274532 -17.860300 27.242062 -52.368446 
